<mxfile host="app.diagrams.net" modified="2023-04-04T15:08:10.444Z" agent="Mozilla/5.0 (Windows NT 10.0; Win64; x64) AppleWebKit/537.36 (KHTML, like Gecko) Chrome/110.0.0.0 Safari/537.36 OPR/96.0.0.0" etag="l2724VA9rZ4rJdC_LKxx" version="21.1.4">
  <diagram name="PÃ¡gina-1" id="CFHjHU-tRy1a4viiEtZx">
    <mxGraphModel dx="1009" dy="542" grid="1" gridSize="10" guides="1" tooltips="1" connect="1" arrows="1" fold="1" page="1" pageScale="1" pageWidth="827" pageHeight="1169" math="0" shadow="0">
      <root>
        <mxCell id="0" />
        <mxCell id="1" parent="0" />
        <mxCell id="wd4e8PFYJihfpnkYh5au-175" value="&amp;lt;&amp;lt;Interface&amp;gt;&amp;gt;&lt;br&gt;Component" style="swimlane;fontStyle=0;childLayout=stackLayout;horizontal=1;startSize=30;horizontalStack=0;resizeParent=1;resizeParentMax=0;resizeLast=0;collapsible=1;marginBottom=0;whiteSpace=wrap;html=1;" vertex="1" parent="1">
          <mxGeometry x="330" y="470" width="140" height="60" as="geometry" />
        </mxCell>
        <mxCell id="wd4e8PFYJihfpnkYh5au-176" value="+Execute()" style="text;strokeColor=none;fillColor=none;align=left;verticalAlign=middle;spacingLeft=4;spacingRight=4;overflow=hidden;points=[[0,0.5],[1,0.5]];portConstraint=eastwest;rotatable=0;whiteSpace=wrap;html=1;" vertex="1" parent="wd4e8PFYJihfpnkYh5au-175">
          <mxGeometry y="30" width="140" height="30" as="geometry" />
        </mxCell>
        <mxCell id="wd4e8PFYJihfpnkYh5au-203" style="edgeStyle=orthogonalEdgeStyle;rounded=0;orthogonalLoop=1;jettySize=auto;html=1;entryX=0.44;entryY=1.027;entryDx=0;entryDy=0;entryPerimeter=0;dashed=1;dashPattern=8 8;endArrow=block;endFill=0;startSize=13;endSize=16;" edge="1" parent="1" source="wd4e8PFYJihfpnkYh5au-179" target="wd4e8PFYJihfpnkYh5au-176">
          <mxGeometry relative="1" as="geometry">
            <Array as="points">
              <mxPoint x="435" y="600" />
              <mxPoint x="392" y="600" />
            </Array>
          </mxGeometry>
        </mxCell>
        <mxCell id="wd4e8PFYJihfpnkYh5au-179" value="Composite" style="swimlane;fontStyle=0;childLayout=stackLayout;horizontal=1;startSize=40;horizontalStack=0;resizeParent=1;resizeParentMax=0;resizeLast=0;collapsible=1;marginBottom=0;whiteSpace=wrap;html=1;" vertex="1" parent="1">
          <mxGeometry x="320" y="660" width="230" height="190" as="geometry" />
        </mxCell>
        <mxCell id="wd4e8PFYJihfpnkYh5au-180" value="-Children Component List&amp;lt;Component&amp;gt;" style="text;strokeColor=none;fillColor=none;align=left;verticalAlign=middle;spacingLeft=4;spacingRight=4;overflow=hidden;points=[[0,0.5],[1,0.5]];portConstraint=eastwest;rotatable=0;whiteSpace=wrap;html=1;" vertex="1" parent="wd4e8PFYJihfpnkYh5au-179">
          <mxGeometry y="40" width="230" height="30" as="geometry" />
        </mxCell>
        <mxCell id="wd4e8PFYJihfpnkYh5au-181" value="+AddChild(child: Component)" style="text;strokeColor=none;fillColor=none;align=left;verticalAlign=middle;spacingLeft=4;spacingRight=4;overflow=hidden;points=[[0,0.5],[1,0.5]];portConstraint=eastwest;rotatable=0;whiteSpace=wrap;html=1;" vertex="1" parent="wd4e8PFYJihfpnkYh5au-179">
          <mxGeometry y="70" width="230" height="30" as="geometry" />
        </mxCell>
        <mxCell id="wd4e8PFYJihfpnkYh5au-193" value="+RemoveChildren(child: Component)" style="text;strokeColor=none;fillColor=none;align=left;verticalAlign=middle;spacingLeft=4;spacingRight=4;overflow=hidden;points=[[0,0.5],[1,0.5]];portConstraint=eastwest;rotatable=0;whiteSpace=wrap;html=1;" vertex="1" parent="wd4e8PFYJihfpnkYh5au-179">
          <mxGeometry y="100" width="230" height="30" as="geometry" />
        </mxCell>
        <mxCell id="wd4e8PFYJihfpnkYh5au-196" value="+GetChildren()" style="text;strokeColor=none;fillColor=none;align=left;verticalAlign=middle;spacingLeft=4;spacingRight=4;overflow=hidden;points=[[0,0.5],[1,0.5]];portConstraint=eastwest;rotatable=0;whiteSpace=wrap;html=1;" vertex="1" parent="wd4e8PFYJihfpnkYh5au-179">
          <mxGeometry y="130" width="230" height="30" as="geometry" />
        </mxCell>
        <mxCell id="wd4e8PFYJihfpnkYh5au-197" value="+Execute()" style="text;strokeColor=none;fillColor=none;align=left;verticalAlign=middle;spacingLeft=4;spacingRight=4;overflow=hidden;points=[[0,0.5],[1,0.5]];portConstraint=eastwest;rotatable=0;whiteSpace=wrap;html=1;" vertex="1" parent="wd4e8PFYJihfpnkYh5au-179">
          <mxGeometry y="160" width="230" height="30" as="geometry" />
        </mxCell>
        <mxCell id="wd4e8PFYJihfpnkYh5au-207" value="" style="endArrow=none;html=1;rounded=0;exitX=-0.002;exitY=0.027;exitDx=0;exitDy=0;exitPerimeter=0;entryX=0.997;entryY=0.053;entryDx=0;entryDy=0;entryPerimeter=0;" edge="1" parent="wd4e8PFYJihfpnkYh5au-179" source="wd4e8PFYJihfpnkYh5au-181" target="wd4e8PFYJihfpnkYh5au-181">
          <mxGeometry width="50" height="50" relative="1" as="geometry">
            <mxPoint x="70" y="30" as="sourcePoint" />
            <mxPoint x="120" y="-20" as="targetPoint" />
          </mxGeometry>
        </mxCell>
        <mxCell id="wd4e8PFYJihfpnkYh5au-183" value="Folha" style="swimlane;fontStyle=0;childLayout=stackLayout;horizontal=1;startSize=30;horizontalStack=0;resizeParent=1;resizeParentMax=0;resizeLast=0;collapsible=1;marginBottom=0;whiteSpace=wrap;html=1;" vertex="1" parent="1">
          <mxGeometry x="130" y="660" width="140" height="60" as="geometry" />
        </mxCell>
        <mxCell id="wd4e8PFYJihfpnkYh5au-184" value="+Execute()" style="text;strokeColor=none;fillColor=none;align=left;verticalAlign=middle;spacingLeft=4;spacingRight=4;overflow=hidden;points=[[0,0.5],[1,0.5]];portConstraint=eastwest;rotatable=0;whiteSpace=wrap;html=1;" vertex="1" parent="wd4e8PFYJihfpnkYh5au-183">
          <mxGeometry y="30" width="140" height="30" as="geometry" />
        </mxCell>
        <mxCell id="wd4e8PFYJihfpnkYh5au-205" value="" style="endArrow=none;html=1;rounded=0;exitX=0.5;exitY=0;exitDx=0;exitDy=0;endFill=0;dashed=1;dashPattern=8 8;" edge="1" parent="1" source="wd4e8PFYJihfpnkYh5au-183">
          <mxGeometry width="50" height="50" relative="1" as="geometry">
            <mxPoint x="390" y="690" as="sourcePoint" />
            <mxPoint x="400" y="600" as="targetPoint" />
            <Array as="points">
              <mxPoint x="200" y="600" />
            </Array>
          </mxGeometry>
        </mxCell>
        <mxCell id="wd4e8PFYJihfpnkYh5au-206" value="" style="endArrow=open;html=1;rounded=0;entryX=1.006;entryY=-0.147;entryDx=0;entryDy=0;entryPerimeter=0;endFill=0;startSize=14;sourcePerimeterSpacing=3;endSize=13;" edge="1" parent="1" target="wd4e8PFYJihfpnkYh5au-176">
          <mxGeometry width="50" height="50" relative="1" as="geometry">
            <mxPoint x="550" y="690" as="sourcePoint" />
            <mxPoint x="440" y="640" as="targetPoint" />
            <Array as="points">
              <mxPoint x="550" y="496" />
            </Array>
          </mxGeometry>
        </mxCell>
      </root>
    </mxGraphModel>
  </diagram>
</mxfile>
